<mxfile host="app.diagrams.net" agent="Mozilla/5.0 (Macintosh; Intel Mac OS X 10_15_7) AppleWebKit/537.36 (KHTML, like Gecko) Chrome/130.0.0.0 Safari/537.36 Edg/130.0.0.0" version="25.0.3">
  <diagram name="第 1 页" id="soZXjREHNREyIjHlJ5LZ">
    <mxGraphModel dx="1773" dy="616" grid="1" gridSize="10" guides="1" tooltips="1" connect="1" arrows="1" fold="1" page="1" pageScale="1" pageWidth="827" pageHeight="1169" math="0" shadow="0">
      <root>
        <mxCell id="0" />
        <mxCell id="1" parent="0" />
        <mxCell id="EOiVWnTYeVE4Q4Vgt8Wg-3" value="" style="rounded=0;whiteSpace=wrap;html=1;fillColor=#dae8fc;strokeColor=#6c8ebf;" vertex="1" parent="1">
          <mxGeometry x="-90" y="280" width="430" height="270" as="geometry" />
        </mxCell>
        <mxCell id="EOiVWnTYeVE4Q4Vgt8Wg-4" value="设备管理" style="rounded=0;whiteSpace=wrap;html=1;" vertex="1" parent="1">
          <mxGeometry x="354" y="280" width="156" height="270" as="geometry" />
        </mxCell>
        <mxCell id="EOiVWnTYeVE4Q4Vgt8Wg-5" value="" style="rounded=0;whiteSpace=wrap;html=1;fillColor=#dae8fc;strokeColor=#6c8ebf;" vertex="1" parent="1">
          <mxGeometry x="530" y="280" width="290" height="270" as="geometry" />
        </mxCell>
        <mxCell id="EOiVWnTYeVE4Q4Vgt8Wg-8" value="上单&amp;amp;签约" style="rounded=0;whiteSpace=wrap;html=1;" vertex="1" parent="1">
          <mxGeometry x="309" y="170" width="120" height="60" as="geometry" />
        </mxCell>
        <mxCell id="EOiVWnTYeVE4Q4Vgt8Wg-9" value="C端订单" style="rounded=0;whiteSpace=wrap;html=1;" vertex="1" parent="1">
          <mxGeometry x="110" y="170" width="120" height="60" as="geometry" />
        </mxCell>
        <mxCell id="EOiVWnTYeVE4Q4Vgt8Wg-10" value="IOT" style="rounded=0;whiteSpace=wrap;html=1;" vertex="1" parent="1">
          <mxGeometry x="500" y="170" width="120" height="60" as="geometry" />
        </mxCell>
        <mxCell id="EOiVWnTYeVE4Q4Vgt8Wg-11" value="商品" style="rounded=1;whiteSpace=wrap;html=1;" vertex="1" parent="1">
          <mxGeometry x="-80" y="320" width="120" height="60" as="geometry" />
        </mxCell>
        <mxCell id="EOiVWnTYeVE4Q4Vgt8Wg-12" value="订单" style="rounded=1;whiteSpace=wrap;html=1;" vertex="1" parent="1">
          <mxGeometry x="-80" y="400" width="120" height="60" as="geometry" />
        </mxCell>
        <mxCell id="EOiVWnTYeVE4Q4Vgt8Wg-13" value="支付" style="rounded=1;whiteSpace=wrap;html=1;" vertex="1" parent="1">
          <mxGeometry x="200" y="400" width="120" height="60" as="geometry" />
        </mxCell>
        <mxCell id="EOiVWnTYeVE4Q4Vgt8Wg-14" value="价格" style="rounded=1;whiteSpace=wrap;html=1;" vertex="1" parent="1">
          <mxGeometry x="60" y="320" width="120" height="60" as="geometry" />
        </mxCell>
        <mxCell id="EOiVWnTYeVE4Q4Vgt8Wg-15" value="账户" style="rounded=1;whiteSpace=wrap;html=1;" vertex="1" parent="1">
          <mxGeometry x="60" y="400" width="120" height="60" as="geometry" />
        </mxCell>
        <mxCell id="EOiVWnTYeVE4Q4Vgt8Wg-16" value="库存" style="rounded=1;whiteSpace=wrap;html=1;" vertex="1" parent="1">
          <mxGeometry x="200" y="320" width="120" height="60" as="geometry" />
        </mxCell>
        <mxCell id="EOiVWnTYeVE4Q4Vgt8Wg-17" value="发货" style="rounded=0;whiteSpace=wrap;html=1;" vertex="1" parent="1">
          <mxGeometry x="-70" y="585" width="120" height="60" as="geometry" />
        </mxCell>
        <mxCell id="EOiVWnTYeVE4Q4Vgt8Wg-18" value="WMS" style="rounded=0;whiteSpace=wrap;html=1;" vertex="1" parent="1">
          <mxGeometry x="100" y="585" width="120" height="60" as="geometry" />
        </mxCell>
        <mxCell id="EOiVWnTYeVE4Q4Vgt8Wg-19" value="调度" style="rounded=1;whiteSpace=wrap;html=1;" vertex="1" parent="1">
          <mxGeometry x="550" y="400" width="120" height="60" as="geometry" />
        </mxCell>
        <mxCell id="EOiVWnTYeVE4Q4Vgt8Wg-20" value="设备分布" style="rounded=1;whiteSpace=wrap;html=1;" vertex="1" parent="1">
          <mxGeometry x="550" y="320" width="120" height="60" as="geometry" />
        </mxCell>
        <mxCell id="EOiVWnTYeVE4Q4Vgt8Wg-21" value="设备链路" style="rounded=1;whiteSpace=wrap;html=1;" vertex="1" parent="1">
          <mxGeometry x="690" y="320" width="120" height="60" as="geometry" />
        </mxCell>
        <mxCell id="EOiVWnTYeVE4Q4Vgt8Wg-22" value="弹宝策略" style="rounded=1;whiteSpace=wrap;html=1;" vertex="1" parent="1">
          <mxGeometry x="690" y="400" width="120" height="60" as="geometry" />
        </mxCell>
        <mxCell id="EOiVWnTYeVE4Q4Vgt8Wg-23" value="申领" style="rounded=1;whiteSpace=wrap;html=1;" vertex="1" parent="1">
          <mxGeometry x="372" y="320" width="120" height="60" as="geometry" />
        </mxCell>
        <mxCell id="EOiVWnTYeVE4Q4Vgt8Wg-24" value="回库" style="rounded=1;whiteSpace=wrap;html=1;" vertex="1" parent="1">
          <mxGeometry x="372" y="400" width="120" height="60" as="geometry" />
        </mxCell>
        <mxCell id="EOiVWnTYeVE4Q4Vgt8Wg-25" value="报失" style="rounded=1;whiteSpace=wrap;html=1;" vertex="1" parent="1">
          <mxGeometry x="372" y="480" width="120" height="60" as="geometry" />
        </mxCell>
        <mxCell id="EOiVWnTYeVE4Q4Vgt8Wg-26" value="工单" style="rounded=0;whiteSpace=wrap;html=1;" vertex="1" parent="1">
          <mxGeometry x="294" y="590" width="120" height="60" as="geometry" />
        </mxCell>
        <mxCell id="EOiVWnTYeVE4Q4Vgt8Wg-27" value="分期" style="rounded=1;whiteSpace=wrap;html=1;" vertex="1" parent="1">
          <mxGeometry x="-80" y="480" width="120" height="60" as="geometry" />
        </mxCell>
        <mxCell id="EOiVWnTYeVE4Q4Vgt8Wg-29" value="补宝&lt;span style=&quot;color: rgba(0, 0, 0, 0); font-family: monospace; font-size: 0px; text-align: start; text-wrap-mode: nowrap;&quot;&gt;%3CmxGraphModel%3E%3Croot%3E%3CmxCell%20id%3D%220%22%2F%3E%3CmxCell%20id%3D%221%22%20parent%3D%220%22%2F%3E%3CmxCell%20id%3D%222%22%20value%3D%22%E8%B0%83%E5%BA%A6%22%20style%3D%22rounded%3D1%3BwhiteSpace%3Dwrap%3Bhtml%3D1%3B%22%20vertex%3D%221%22%20parent%3D%221%22%3E%3CmxGeometry%20x%3D%22560%22%20y%3D%22440%22%20width%3D%22120%22%20height%3D%2260%22%20as%3D%22geometry%22%2F%3E%3C%2FmxCell%3E%3C%2Froot%3E%3C%2FmxGraphModel%3E&lt;/span&gt;" style="rounded=1;whiteSpace=wrap;html=1;" vertex="1" parent="1">
          <mxGeometry x="550" y="480" width="120" height="60" as="geometry" />
        </mxCell>
        <mxCell id="EOiVWnTYeVE4Q4Vgt8Wg-30" value="盘点" style="rounded=1;whiteSpace=wrap;html=1;" vertex="1" parent="1">
          <mxGeometry x="690" y="480" width="120" height="60" as="geometry" />
        </mxCell>
        <mxCell id="EOiVWnTYeVE4Q4Vgt8Wg-31" value="结算" style="rounded=0;whiteSpace=wrap;html=1;" vertex="1" parent="1">
          <mxGeometry x="480" y="590" width="120" height="60" as="geometry" />
        </mxCell>
        <mxCell id="EOiVWnTYeVE4Q4Vgt8Wg-33" value="" style="edgeStyle=orthogonalEdgeStyle;rounded=0;orthogonalLoop=1;jettySize=auto;html=1;" edge="1" parent="1" source="EOiVWnTYeVE4Q4Vgt8Wg-32" target="EOiVWnTYeVE4Q4Vgt8Wg-8">
          <mxGeometry relative="1" as="geometry" />
        </mxCell>
        <mxCell id="EOiVWnTYeVE4Q4Vgt8Wg-32" value="BD/AgentBD" style="shape=umlActor;verticalLabelPosition=bottom;verticalAlign=top;html=1;outlineConnect=0;" vertex="1" parent="1">
          <mxGeometry x="354" y="48" width="30" height="60" as="geometry" />
        </mxCell>
        <mxCell id="EOiVWnTYeVE4Q4Vgt8Wg-34" value="促销" style="rounded=1;whiteSpace=wrap;html=1;" vertex="1" parent="1">
          <mxGeometry x="60" y="480" width="120" height="60" as="geometry" />
        </mxCell>
        <mxCell id="EOiVWnTYeVE4Q4Vgt8Wg-36" style="edgeStyle=orthogonalEdgeStyle;rounded=0;orthogonalLoop=1;jettySize=auto;html=1;" edge="1" parent="1" source="EOiVWnTYeVE4Q4Vgt8Wg-35" target="EOiVWnTYeVE4Q4Vgt8Wg-10">
          <mxGeometry relative="1" as="geometry" />
        </mxCell>
        <mxCell id="EOiVWnTYeVE4Q4Vgt8Wg-35" value="机柜" style="rounded=1;whiteSpace=wrap;html=1;" vertex="1" parent="1">
          <mxGeometry x="500" y="40" width="120" height="60" as="geometry" />
        </mxCell>
        <mxCell id="EOiVWnTYeVE4Q4Vgt8Wg-40" style="edgeStyle=orthogonalEdgeStyle;rounded=0;orthogonalLoop=1;jettySize=auto;html=1;" edge="1" parent="1" source="EOiVWnTYeVE4Q4Vgt8Wg-37" target="EOiVWnTYeVE4Q4Vgt8Wg-9">
          <mxGeometry relative="1" as="geometry" />
        </mxCell>
        <mxCell id="EOiVWnTYeVE4Q4Vgt8Wg-37" value="消费者" style="shape=umlActor;verticalLabelPosition=bottom;verticalAlign=top;html=1;outlineConnect=0;" vertex="1" parent="1">
          <mxGeometry x="150" y="48" width="30" height="60" as="geometry" />
        </mxCell>
        <mxCell id="EOiVWnTYeVE4Q4Vgt8Wg-38" value="风控" style="rounded=1;whiteSpace=wrap;html=1;" vertex="1" parent="1">
          <mxGeometry x="200" y="480" width="120" height="60" as="geometry" />
        </mxCell>
        <mxCell id="EOiVWnTYeVE4Q4Vgt8Wg-39" value="权限" style="rounded=0;whiteSpace=wrap;html=1;" vertex="1" parent="1">
          <mxGeometry x="650" y="590" width="120" height="60" as="geometry" />
        </mxCell>
        <mxCell id="EOiVWnTYeVE4Q4Vgt8Wg-41" value="售卖" style="text;html=1;align=center;verticalAlign=middle;resizable=0;points=[];autosize=1;strokeColor=none;fillColor=none;" vertex="1" parent="1">
          <mxGeometry x="-90" y="280" width="50" height="30" as="geometry" />
        </mxCell>
        <mxCell id="EOiVWnTYeVE4Q4Vgt8Wg-42" value="设备管理" style="text;html=1;align=center;verticalAlign=middle;resizable=0;points=[];autosize=1;strokeColor=none;fillColor=none;" vertex="1" parent="1">
          <mxGeometry x="354" y="280" width="70" height="30" as="geometry" />
        </mxCell>
        <mxCell id="EOiVWnTYeVE4Q4Vgt8Wg-43" value="设备运营" style="text;html=1;align=center;verticalAlign=middle;resizable=0;points=[];autosize=1;strokeColor=none;fillColor=none;" vertex="1" parent="1">
          <mxGeometry x="530" y="280" width="70" height="30" as="geometry" />
        </mxCell>
      </root>
    </mxGraphModel>
  </diagram>
</mxfile>
